<?xml version="1.0" encoding="utf-8"?>
<!-- Generator: Adobe Illustrator 24.1.2, SVG Export Plug-In . SVG Version: 6.00 Build 0)  -->
<svg version="1.1" id="Layer_1" xmlns="http://www.w3.org/2000/svg" xmlns:xlink="http://www.w3.org/1999/xlink" x="0px" y="0px"
	 viewBox="0 0 5734 3200" style="enable-background:new 0 0 5734 3200;" xml:space="preserve">
<style type="text/css">
	.st0{display:none;fill:#020202;}
	.st1{fill:#FFFFFF;stroke:#FFFFFF;stroke-miterlimit:10;}
	.st2{fill:#FFFFFF;stroke:#FFFFFF;stroke-width:5;stroke-miterlimit:10;}
</style>
<rect x="435" y="300" class="st0" width="4729.5" height="2599.9"/>
<g>
	<path class="st1" d="M1165.3,1256.4v355.4h-36.1v-284.3l-139.6,239.1h-17.8L832.2,1329v282.8h-36v-355.4h31l154.3,263.5
		l152.8-263.5H1165.3z"/>
	<path class="st1" d="M1298.8,1344.8h36.1v267h-36.1V1344.8z M1317.1,1286.4c-7.4,0-13.7-2.5-18.8-7.6c-5.1-5.1-7.6-11.2-7.6-18.3
		c0-6.8,2.5-12.7,7.6-17.8c5.1-5.1,11.3-7.6,18.8-7.6c7.5,0,13.7,2.5,18.8,7.4c5.1,4.9,7.6,10.7,7.6,17.5c0,7.5-2.5,13.7-7.6,18.8
		C1330.8,1283.9,1324.5,1286.4,1317.1,1286.4z"/>
	<path class="st1" d="M1601.4,1595.6c-6.8,6.1-15.2,10.8-25.1,14c-10,3.2-20.4,4.8-31.2,4.8c-25,0-44.3-6.8-57.9-20.3
		c-13.5-13.5-20.3-32.7-20.3-57.4v-161.4h-47.7v-30.5h47.7v-58.4h36.1v58.4h81.2v30.5h-81.2v159.4c0,15.9,4,28,11.9,36.3
		c8,8.3,19.4,12.4,34.3,12.4c7.4,0,14.6-1.2,21.6-3.6c6.9-2.4,13-5.8,18-10.2L1601.4,1595.6z"/>
	<path class="st1" d="M1793.3,1614.4c-26.4,0-50-5.8-70.8-17.3c-20.8-11.5-37.1-27.7-49-48.5s-17.8-44.2-17.8-70.3
		c0-26.1,5.9-49.4,17.8-70.1c11.8-20.6,28.2-36.7,49-48.2c20.8-11.5,44.4-17.3,70.8-17.3c23,0,43.6,4.5,61.7,13.5
		c18.1,9,32.4,22.1,42.9,39.3l-26.9,18.3c-8.8-13.2-20-23.1-33.5-29.7c-13.5-6.6-28.3-9.9-44.2-9.9c-19.3,0-36.6,4.3-52.1,13
		c-15.4,8.6-27.4,20.9-36.1,36.8c-8.6,15.9-12.9,34-12.9,54.3c0,20.6,4.3,38.8,12.9,54.6c8.6,15.7,20.7,27.9,36.1,36.6
		c15.4,8.6,32.8,12.9,52.1,12.9c15.9,0,30.6-3.2,44.2-9.6c13.5-6.4,24.7-16.3,33.5-29.4l26.9,18.3c-10.5,17.3-24.9,30.4-43.2,39.3
		C1836.5,1609.9,1816,1614.4,1793.3,1614.4z"/>
	<path class="st1" d="M2125.9,1342.7c33.5,0,60.2,9.7,80,29.2c19.8,19.5,29.7,47.8,29.7,85v154.8h-36.1v-151.3
		c0-27.8-6.9-48.9-20.8-63.5c-13.9-14.6-33.7-21.8-59.4-21.8c-28.8,0-51.5,8.6-68.3,25.6c-16.8,17.1-25.1,40.7-25.1,70.8v140.1
		h-36.1v-376.7h36.1v156.4c9.8-15.6,23.4-27.6,40.6-36.1C2083.8,1347,2103.6,1342.7,2125.9,1342.7z"/>
	<path class="st1" d="M2592.5,1489.5h-223.4c2,27.8,12.7,50.2,32,67.3c19.3,17.1,43.7,25.6,73.1,25.6c16.6,0,31.8-3,45.7-8.9
		c13.9-5.9,25.9-14.6,36.1-26.2l20.3,23.3c-11.8,14.2-26.7,25.1-44.4,32.5c-17.8,7.4-37.3,11.2-58.6,11.2
		c-27.4,0-51.7-5.8-72.9-17.5c-21.2-11.7-37.7-27.8-49.5-48.5c-11.8-20.6-17.8-44-17.8-70.1c0-26.1,5.7-49.4,17-70.1
		c11.3-20.6,26.9-36.7,46.7-48.2c19.8-11.5,42.1-17.3,66.8-17.3c24.7,0,46.9,5.8,66.5,17.3c19.6,11.5,35,27.5,46.2,48
		c11.2,20.5,16.8,43.9,16.8,70.3L2592.5,1489.5z M2463.5,1373.7c-25.7,0-47.3,8.2-64.8,24.6c-17.4,16.4-27.3,37.8-29.7,64.2h189.4
		c-2.4-26.4-12.3-47.8-29.7-64.2C2511.3,1381.9,2489.6,1373.7,2463.5,1373.7z"/>
	<path class="st1" d="M2692,1235.1h36.1v376.7H2692V1235.1z"/>
	<path class="st1" d="M2854,1235.1h36.1v376.7H2854V1235.1z"/>
</g>
<line class="st2" x1="3151.7" y1="928.4" x2="3151.7" y2="1921.1"/>
<g transform="translate(486.45, 58.5) scale(1.4)">
	<g id="Group_117_Official" transform="translate(-3895.564 -1479.684)">
		<g id="Group_116_Official" transform="translate(3895.564 1479.684)">
			<path id="Path_92" class="st1" d="M2090.4,1112.9c5.4,0,10.8,0.7,16.1,2l-0.6,7.9c-4.7-3.1-10.1-4.9-15.7-5.2
				c-8.4,0-11.7,6.8-11.7,15.4c0,12.2,6.9,19.8,16.3,19.8c1.5,0,2.9-0.2,4.3-0.7v-16h7.5v18.5c-4.8,2.3-10.1,3.5-15.4,3.3
				c-12.9,0-22.1-7.6-22.1-23.5c-0.9-11,7.3-20.5,18.3-21.4C2088.4,1112.8,2089.4,1112.8,2090.4,1112.9"/>
			<path id="Path_93" class="st1" d="M2129.7,1113.8h9.1v38.4h2.8c4.7,0,9.3-0.5,13.9-1.6v6.3h-25.7V1113.8z"/>
			<path id="Path_94" class="st1" d="M2194.9,1112.9c11.7,0,20.9,7.5,20.9,22.5c0.7,11.7-8.1,21.7-19.8,22.4c-0.9,0.1-1.9,0.1-2.8,0
				c-11.8,0-20.9-7.5-20.9-22.4c-0.8-11.6,8-21.7,19.6-22.5C2192.9,1112.8,2193.9,1112.8,2194.9,1112.9 M2206.1,1137.8
				c0-10.5-4.8-20-13.6-20c-7,0-10.5,6-10.5,15c0,10.5,4.8,20,13.5,20C2202.5,1152.8,2206,1146.7,2206.1,1137.8"/>
			<path id="Path_95" class="st1" d="M2237.5,1114c0,0,7.2-0.8,11.8-0.8c7.8,0,18.2,0.5,18.2,9.9c0,7.1-8,10.1-8,10.1
				s10.9,1.6,10.9,10.8c-0.2,11-11.2,13.4-21.1,13.4c-4.5,0-11.8-0.5-11.8-0.5L2237.5,1114z M2249.9,1132.1c4.1,0.6,8-2.3,8.6-6.4
				c0.1-0.6,0.1-1.1,0.1-1.7c0-4.8-4.3-6.6-8.3-6.6c-1.2,0-2.5,0.1-3.7,0.3v14C2247.6,1131.9,2248.7,1132.1,2249.9,1132.1
				 M2252,1152.8c4.4,0.4,8.4-2.8,8.8-7.2c0-0.4,0-0.7,0-1.1c-0.1-4.6-4-8.2-8.5-8.1c-0.8-0.1-1.5-0.1-2.2-0.1
				c-1.2,0-2.4,0.1-3.6,0.3v15.3C2248.3,1152.5,2250.1,1152.9,2252,1152.8"/>
			<path id="Path_96" class="st1" d="M2302.8,1113.8h10.5l15.9,43.2h-9.6l-4.5-12.4h-16.6l-4.3,12.4h-7.3L2302.8,1113.8z
				 M2313.1,1139.3l-6.6-18.4l-6.5,18.4H2313.1z"/>
			<path id="Path_97" class="st1" d="M2348.3,1113.8h9v38.4h2.8c4.7,0,9.3-0.5,13.9-1.6v6.3h-25.7L2348.3,1113.8z"/>
			<path id="Path_98" class="st1" d="M2421,1113.9c0,0,7.2-0.7,12.2-0.7c9.9,0,20.8,1.1,20.8,12.7c0,16.1-18.2,15.1-24,15.2v15.8h-9
				V1113.9z M2434.9,1136.4c6.1,0,10.3-2.6,10.3-9.6c0-7.8-5.4-9-11.3-9c-1.3,0-2.6,0.1-4,0.3v17.7
				C2431.6,1136.3,2433.3,1136.5,2434.9,1136.4"/>
			<path id="Path_99" class="st1" d="M2473.7,1114c0,0,7.5-0.8,13.3-0.8c13.5,0,19.5,2.7,19.5,11.7c-0.4,6.5-5.3,11.8-11.7,12.6
				c5.2,6.5,10.3,12.9,15.4,19.4h-10.8l-12.6-18.5v-3.5c0,0,0.6,0.1,1.4,0.1c4.7,0.6,8.9-2.8,9.5-7.4c0.1-0.6,0.1-1.2,0-1.8
				c0-6-4.2-8.5-10-8.5c-1.6,0-3.3,0.3-4.9,0.7v38.9h-9L2473.7,1114z"/>
			<path id="Path_100" class="st1" d="M2548.9,1112.9c11.7,0,20.9,7.5,20.9,22.5c0.7,11.7-8.1,21.7-19.7,22.4
				c-0.9,0.1-1.9,0.1-2.8,0c-11.8,0-20.9-7.5-20.9-22.4c-0.8-11.6,8-21.7,19.6-22.5C2546.9,1112.8,2547.9,1112.8,2548.9,1112.9
				 M2560.1,1137.8c0-10.5-4.8-20-13.6-20c-7,0-10.5,6-10.5,15c0,10.5,4.8,20,13.5,20C2556.5,1152.8,2560.1,1146.7,2560.1,1137.8"/>
			<path id="Path_101" class="st1" d="M2591.5,1113.9c0,0,7.2-0.7,12.2-0.7c9.9,0,20.8,1.1,20.8,12.7c0,16.1-18.2,15.1-24,15.2v15.8
				h-9V1113.9z M2605.4,1136.4c6.1,0,10.3-2.6,10.3-9.6c0-7.8-5.4-9-11.3-9c-1.3,0-2.6,0.1-4,0.3v17.7
				C2602.1,1136.3,2603.8,1136.5,2605.4,1136.4"/>
			<path id="Path_102" class="st1" d="M2644.2,1113.8h26.1v6.2c-4.5-1.1-9.2-1.6-13.9-1.6h-3.1v13.8h16.5v4.5h-16.5v15.5h4.3
				c4.7,0,9.3-0.5,13.8-1.6v6.3h-27.2V1113.8z"/>
			<path id="Path_103" class="st1" d="M2692.6,1114c0,0,7.5-0.8,13.3-0.8c13.5,0,19.5,2.7,19.5,11.7c-0.4,6.5-5.3,11.8-11.7,12.6
				c5.2,6.5,10.3,12.9,15.4,19.4h-10.8l-12.6-18.5v-3.5c0,0,0.6,0.1,1.4,0.1c4.7,0.6,8.9-2.8,9.5-7.4c0.1-0.6,0.1-1.2,0-1.8
				c0-6-4.2-8.5-10-8.5c-1.6,0-3.3,0.3-4.8,0.7v38.9h-9.1L2692.6,1114z"/>
			<path id="Path_104" class="st1" d="M2757.3,1119.1h-13.9v-5.3h36.8v5.3h-13.8v37.9h-9.1L2757.3,1119.1z"/>
			<rect id="Rectangle_44" x="2799" y="1113.8" class="st1" width="9.1" height="43.2"/>
			<path id="Path_105" class="st1" d="M2831.7,1113.8h26.1v6.2c-4.5-1.1-9.2-1.6-13.9-1.6h-3.1v13.8h16.5v4.5h-16.5v15.5h4.3
				c4.7,0,9.3-0.5,13.8-1.6v6.3h-27.2L2831.7,1113.8z"/>
			<path id="Path_106" class="st1" d="M2878.9,1147.3c4.3,3.3,9.4,5.2,14.7,5.6c3.9,0,7-1.8,7-6.3c0-4.7-4.5-6.5-9.6-8.3
				c-6.4-2.2-12.6-4.8-12.6-12.7c0-8.5,7-12.6,15.8-12.6c4.2-0.1,8.3,0.5,12.2,1.8l-0.6,7.2c-3.7-2.5-7.9-3.9-12.4-4.2
				c-3.6,0-6.5,1.5-6.5,5c0,5.8,5.3,6.9,11.2,8.9c5.7,2,10.9,4.8,10.9,12.4c0,10.6-8.2,13.8-16.6,13.8c-4.9,0.1-9.8-0.7-14.4-2.5
				C2878.5,1152.7,2878.6,1150,2878.9,1147.3"/>
			<path id="Path_107_Official" class="st1" d="M2545.4,861.3c0-24.6,0.4-47.5,1.7-68.7l-64.9,12.3v5.9l6.4,0.8
				c3.7,0,7.1,1.7,9.3,4.7c2.1,4.2,3.4,8.8,3.8,13.6c0.9,12.3,1.7,40.3,1.3,84.4c0,43.7-0.4,71.3-1.3,81.9
				c18.1,4.3,36.5,6.7,55.1,7.2c25.4,0,45.4-7.2,59.8-22.1c14.4-14.4,22.1-34.8,22.1-59.8c0.7-18-5.2-35.6-16.5-49.6
				c-10.1-12.6-25.4-19.8-41.6-19.5C2568.3,852.8,2556.3,855.8,2545.4,861.3 M2546.6,992c-0.9-13.6-1.7-54.3-1.7-120.9
				c4.9-1.5,10.1-2.2,15.2-2.1c10.4,0.1,19.9,6.2,24.2,15.7c6.4,12.1,9.4,25.7,8.9,39.4c0.6,17.1-2.9,34.1-10.2,49.6
				c-6.8,13.2-15.2,19.9-25.9,19.9C2553.7,992.9,2550.2,992.3,2546.6,992 M2238.7,796.9H2069v8.5l8.9,0.9c5.6,0.7,10.7,3.4,14.4,7.6
				c3.5,6.2,5.3,13.2,5.1,20.4c3.4,42.6,3.4,85.5,0,128.1c-0.2,7.1-2,14-5.1,20.4c-3.4,4.5-8.7,7.3-14.4,7.6l-8.9,1.3v8.5h109.4
				v-8.5l-11.5-0.9c-5.6-0.5-10.9-3.2-14.4-7.6c-3.5-6.2-5.3-13.2-5.1-20.4c-1.3-17-2.1-36.5-2.1-58.1l22.9,0.4
				c12.3,0.4,20.8,9.8,25,28.4h8.5v-69.1h-8.5c-4.2,18.2-12.3,27.6-25,28l-22.9,0.4c0-38.2,0.9-65.3,2.1-81.9h33.5
				c23.8,0,39.9,15.2,49.2,45.8l10.2-3L2238.7,796.9z M2218.8,927.5c-0.7,19.9,6,39.4,18.7,54.7c12.3,14.4,30.5,21.2,53.4,21.2
				c20.7,1,40.8-7,55.1-22.1c13.6-14.9,20.8-34.6,19.9-54.7c0.7-19.9-6-39.4-18.7-54.7c-12.3-14.4-30.5-21.2-53.4-21.2
				c-20.7-1-40.8,7-55.1,22.1C2225.1,887.7,2217.9,907.4,2218.8,927.5 M2313.3,879.2c5.4,15.4,7.9,31.6,7.2,47.9
				c0,45-9.3,67-27.6,67c-9.3,0-16.5-6.4-21.6-19.1c-5.4-15.4-7.8-31.6-7.2-47.9c0-44.6,9.3-66.6,27.6-66.6
				C2301,860.1,2308.2,866.4,2313.3,879.2 M2671.7,982.2c14,14,33.2,21.7,53,21.2c12.1,0.3,24.1-2.5,34.8-8.1
				c9.3-4.4,17.5-10.9,23.7-19.1l-4.2-5.1c-9.2,7.1-20.6,10.9-32.3,10.6c-15,1-29.5-5.3-39-17c-9.8-12.7-14.3-28.6-12.7-44.5h90.8
				c0.8-18-4.8-35.7-15.7-50c-11.1-12.9-27.6-20-44.6-19.1c-23.7,0-42,7.6-55.1,22.5c-13.2,15.1-20.1,34.7-19.5,54.7
				C2650.1,948.4,2657.7,967.9,2671.7,982.2 M2703.1,875.8c4.7-10.2,10.6-15.2,18.7-15.2c12.7,0,19.1,16.1,19.1,48.8l-45,0.9
				C2696,898.3,2698.5,886.6,2703.1,875.8 M2899.9,858.8c-13.7-5.7-28.4-8.4-43.3-8.1c-15.3-0.7-30.4,4.1-42.4,13.6
				c-10.2,7.9-16.2,20.2-16.1,33.1c-0.5,9.9,3,19.5,9.8,26.7c8.6,7.6,18.7,13.2,29.7,16.5c8.8,2.7,17.2,6.8,24.6,12.3
				c8.6,7.9,9.1,21.2,1.2,29.7c-0.4,0.4-0.8,0.8-1.2,1.2c-4.7,4.8-11.2,7.2-17.8,6.8c-18.7,0-32.7-13.6-42.4-40.7l-7.2,2.1l1.7,42.4
				c16.3,6.1,33.5,9.1,50.9,8.9c19.5,0,34.4-4.2,45.4-13.1c11-8.6,17.2-22.1,16.5-36.1c0.5-9-2.4-17.9-8.1-25
				c-7.6-7.7-16.9-13.5-27.1-17c-10.3-3.2-20-7.9-28.8-14c-4.9-3.7-7.7-9.6-7.6-15.7c-0.3-5.7,1.7-11.4,5.5-15.7
				c3.7-4.1,9-6.2,14.4-5.9c17,0,29.3,12.3,36.9,36.5l7.2-2.1L2899.9,858.8z M2491.9,855c-6.1-2.9-12.8-4.4-19.5-4.2
				c-8.3,0.5-16.2,3.6-22.5,8.9c-8.4,6.5-14.9,15.1-18.7,25l0.4-33.9l-64.5,12.7v5.9l6.4,0.4c8.1,0.9,12.7,7.2,13.6,18.7
				c2.5,27.9,2.5,56,0,84c-0.9,11.4-5.5,17.4-13.6,18.7l-6.4,0.9v8.1h89.9V992l-11.5-0.9c-8.1-0.9-12.7-7.2-13.6-18.7
				c-2.6-25.9-2.9-52.1-0.9-78c4-5,10.1-7.8,16.5-7.6c10-0.5,20,2.2,28.4,7.6"/>
			<path id="Path_108" class="st1" d="M2069.1,1062.1v5.6h840.2v-33.9L2069.1,1062.1z"/>
		</g>
	</g>
</g>
</svg>
